# xmcd CD database file
#
# Track frame offsets:
#	150
#	13385
#	26423
#	39408
#	59225
#	70720
#	87355
#	97665
#	114495
#	129875
#	147160
#	164083
#	175973
#	184810
#	193588
#	215903
#
# Disc length: 3081 seconds
#
# Revision: 1
# Processed by: cddbd v1.5.1PL2 Copyright (c) Steve Scherf et al.
# Submitted via: CDex 1.60beta1-cs1
#
DISCID=e70c0710
DTITLE=Lucy Reed - The Singing Reed
DYEAR=1957
DGENRE=Jazz
TTITLE0=Inchworm
TTITLE1=My Love Is A Wanderer
TTITLE2=Because We're Kids
TTITLE3=It's All Right With Me
TTITLE4=There's A Boat Dat's Leavin' Soon For New York
TTITLE5=Lazy Afternoon
TTITLE6=Flying Down To Rio
TTITLE7=Little Girl Blue
TTITLE8=Fools Fall In Love
TTITLE9=Out Of This World
TTITLE10=You May Not Love Me
TTITLE11=My Time Of Day
TTITLE12=No Moon At All
TTITLE13=Tabby The Cat
TTITLE14=Baltimore Oriole
TTITLE15=That's How I Love The Blues
EXTD=YEAR: 1957
EXTT0=
EXTT1=
EXTT2=
EXTT3=
EXTT4=
EXTT5=
EXTT6=
EXTT7=
EXTT8=
EXTT9=
EXTT10=
EXTT11=
EXTT12=
EXTT13=
EXTT14=
EXTT15=
PLAYORDER=
